<?xml version="1.0" encoding="utf-8"?>
<svg xmlns="http://www.w3.org/2000/svg" xmlns:xlink="http://www.w3.org/1999/xlink" style="margin: auto; background: none; display: block; shape-rendering: auto;" width="44px" height="44px" viewBox="0 0 100 100" preserveAspectRatio="xMidYMid">
<g transform="rotate(0 50 50)">
  <rect x="49" y="36.5" rx="1" ry="1.8" width="2" height="9" fill="#47a333">
    <animate attributeName="opacity" values="1;0" keyTimes="0;1" dur="2.4390243902439024s" begin="-2.2865853658536586s" repeatCount="indefinite"></animate>
  </rect>
</g><g transform="rotate(22.5 50 50)">
  <rect x="49" y="36.5" rx="1" ry="1.8" width="2" height="9" fill="#47a333">
    <animate attributeName="opacity" values="1;0" keyTimes="0;1" dur="2.4390243902439024s" begin="-2.1341463414634143s" repeatCount="indefinite"></animate>
  </rect>
</g><g transform="rotate(45 50 50)">
  <rect x="49" y="36.5" rx="1" ry="1.8" width="2" height="9" fill="#47a333">
    <animate attributeName="opacity" values="1;0" keyTimes="0;1" dur="2.4390243902439024s" begin="-1.9817073170731705s" repeatCount="indefinite"></animate>
  </rect>
</g><g transform="rotate(67.5 50 50)">
  <rect x="49" y="36.5" rx="1" ry="1.8" width="2" height="9" fill="#47a333">
    <animate attributeName="opacity" values="1;0" keyTimes="0;1" dur="2.4390243902439024s" begin="-1.8292682926829267s" repeatCount="indefinite"></animate>
  </rect>
</g><g transform="rotate(90 50 50)">
  <rect x="49" y="36.5" rx="1" ry="1.8" width="2" height="9" fill="#47a333">
    <animate attributeName="opacity" values="1;0" keyTimes="0;1" dur="2.4390243902439024s" begin="-1.6768292682926829s" repeatCount="indefinite"></animate>
  </rect>
</g><g transform="rotate(112.5 50 50)">
  <rect x="49" y="36.5" rx="1" ry="1.8" width="2" height="9" fill="#47a333">
    <animate attributeName="opacity" values="1;0" keyTimes="0;1" dur="2.4390243902439024s" begin="-1.5243902439024388s" repeatCount="indefinite"></animate>
  </rect>
</g><g transform="rotate(135 50 50)">
  <rect x="49" y="36.5" rx="1" ry="1.8" width="2" height="9" fill="#47a333">
    <animate attributeName="opacity" values="1;0" keyTimes="0;1" dur="2.4390243902439024s" begin="-1.371951219512195s" repeatCount="indefinite"></animate>
  </rect>
</g><g transform="rotate(157.5 50 50)">
  <rect x="49" y="36.5" rx="1" ry="1.8" width="2" height="9" fill="#47a333">
    <animate attributeName="opacity" values="1;0" keyTimes="0;1" dur="2.4390243902439024s" begin="-1.2195121951219512s" repeatCount="indefinite"></animate>
  </rect>
</g><g transform="rotate(180 50 50)">
  <rect x="49" y="36.5" rx="1" ry="1.8" width="2" height="9" fill="#47a333">
    <animate attributeName="opacity" values="1;0" keyTimes="0;1" dur="2.4390243902439024s" begin="-1.0670731707317072s" repeatCount="indefinite"></animate>
  </rect>
</g><g transform="rotate(202.5 50 50)">
  <rect x="49" y="36.5" rx="1" ry="1.8" width="2" height="9" fill="#47a333">
    <animate attributeName="opacity" values="1;0" keyTimes="0;1" dur="2.4390243902439024s" begin="-0.9146341463414633s" repeatCount="indefinite"></animate>
  </rect>
</g><g transform="rotate(225 50 50)">
  <rect x="49" y="36.5" rx="1" ry="1.8" width="2" height="9" fill="#47a333">
    <animate attributeName="opacity" values="1;0" keyTimes="0;1" dur="2.4390243902439024s" begin="-0.7621951219512194s" repeatCount="indefinite"></animate>
  </rect>
</g><g transform="rotate(247.5 50 50)">
  <rect x="49" y="36.5" rx="1" ry="1.8" width="2" height="9" fill="#47a333">
    <animate attributeName="opacity" values="1;0" keyTimes="0;1" dur="2.4390243902439024s" begin="-0.6097560975609756s" repeatCount="indefinite"></animate>
  </rect>
</g><g transform="rotate(270 50 50)">
  <rect x="49" y="36.5" rx="1" ry="1.8" width="2" height="9" fill="#47a333">
    <animate attributeName="opacity" values="1;0" keyTimes="0;1" dur="2.4390243902439024s" begin="-0.45731707317073167s" repeatCount="indefinite"></animate>
  </rect>
</g><g transform="rotate(292.5 50 50)">
  <rect x="49" y="36.5" rx="1" ry="1.8" width="2" height="9" fill="#47a333">
    <animate attributeName="opacity" values="1;0" keyTimes="0;1" dur="2.4390243902439024s" begin="-0.3048780487804878s" repeatCount="indefinite"></animate>
  </rect>
</g><g transform="rotate(315 50 50)">
  <rect x="49" y="36.5" rx="1" ry="1.8" width="2" height="9" fill="#47a333">
    <animate attributeName="opacity" values="1;0" keyTimes="0;1" dur="2.4390243902439024s" begin="-0.1524390243902439s" repeatCount="indefinite"></animate>
  </rect>
</g><g transform="rotate(337.5 50 50)">
  <rect x="49" y="36.5" rx="1" ry="1.8" width="2" height="9" fill="#47a333">
    <animate attributeName="opacity" values="1;0" keyTimes="0;1" dur="2.4390243902439024s" begin="0s" repeatCount="indefinite"></animate>
  </rect>
</g>
<!-- [ldio] generated by https://loading.io/ --></svg>