<svg width="235" height="228" viewBox="0 0 235 228" fill="none" xmlns="http://www.w3.org/2000/svg">
<path d="M235 114C235 99.0293 231.961 84.2052 226.056 70.3741C220.151 56.543 211.496 43.9757 200.585 33.3898C189.674 22.8039 176.721 14.4068 162.465 8.67773C148.21 2.9487 132.93 -6.5439e-07 117.5 0C102.07 6.5439e-07 86.7904 2.9487 72.5347 8.67774C58.2789 14.4068 45.3258 22.804 34.4149 33.3898C23.5041 43.9757 14.8491 56.543 8.94415 70.3741C3.03922 84.2052 -1.34896e-06 99.0293 0 114L33.5373 114C33.5373 103.302 35.709 92.7094 39.9286 82.826C44.1481 72.9426 50.3327 63.9623 58.1294 56.3979C65.926 48.8335 75.182 42.833 85.3689 38.7392C95.5557 34.6454 106.474 32.5383 117.5 32.5383C128.526 32.5383 139.444 34.6454 149.631 38.7392C159.818 42.833 169.074 48.8335 176.871 56.3979C184.667 63.9623 190.852 72.9426 195.071 82.826C199.291 92.7093 201.463 103.302 201.463 114H235Z" fill="#7C98A9"/>
<path d="M174.622 14.3778C156.683 4.69547 136.442 -0.258119 115.916 0.0103581C95.3899 0.278835 75.2944 5.76001 57.6309 15.908C39.9674 26.056 25.3524 40.5166 15.2414 57.8497C5.13035 75.1828 -0.123792 94.7836 0.00221357 114.7L33.5389 114.5C33.4488 100.268 37.2033 86.2622 44.4284 73.8763C51.6535 61.4905 62.097 51.1573 74.719 43.9058C87.3409 36.6543 101.701 32.7375 116.368 32.5457C131.036 32.3539 145.499 35.8936 158.318 42.8123L174.622 14.3778Z" fill="#26363E"/>
<path d="M175.469 13.6714L133.539 84.3085L125.643 78.9791L175.469 13.6714Z" fill="#26363E"/>
<circle cx="118" cy="89" r="25" fill="#26363E"/>
<path d="M113.967 91.5703V93.9336H103.732L103.566 92.0781L109.387 82.7812H111.799L109.182 87.1172L106.535 91.5703H113.967ZM112.443 82.7812V97H109.396V82.7812H112.443ZM115.725 95.5547C115.725 95.112 115.881 94.7409 116.193 94.4414C116.512 94.1419 116.926 93.9922 117.434 93.9922C117.948 93.9922 118.358 94.1419 118.664 94.4414C118.977 94.7409 119.133 95.112 119.133 95.5547C119.133 95.9909 118.977 96.3587 118.664 96.6582C118.358 96.9577 117.948 97.1074 117.434 97.1074C116.926 97.1074 116.512 96.9577 116.193 96.6582C115.881 96.3587 115.725 95.9909 115.725 95.5547ZM128.742 82.6055H129.211V85.0273H129.035C128.352 85.0273 127.727 85.125 127.16 85.3203C126.6 85.5156 126.115 85.8053 125.705 86.1895C125.295 86.5671 124.979 87.0358 124.758 87.5957C124.543 88.1491 124.436 88.7871 124.436 89.5098V91.9316C124.436 92.4199 124.478 92.8464 124.562 93.2109C124.654 93.569 124.784 93.8685 124.953 94.1094C125.129 94.3438 125.34 94.5228 125.588 94.6465C125.835 94.7637 126.115 94.8223 126.428 94.8223C126.708 94.8223 126.965 94.7604 127.199 94.6367C127.434 94.513 127.635 94.3372 127.805 94.1094C127.974 93.8815 128.104 93.6178 128.195 93.3184C128.286 93.0124 128.332 92.6803 128.332 92.3223C128.332 91.9447 128.283 91.6029 128.186 91.2969C128.094 90.9844 127.961 90.7174 127.785 90.4961C127.616 90.2747 127.408 90.1055 127.16 89.9883C126.913 89.8646 126.639 89.8027 126.34 89.8027C125.91 89.8027 125.539 89.9004 125.227 90.0957C124.914 90.291 124.673 90.5417 124.504 90.8477C124.335 91.1536 124.247 91.4661 124.24 91.7852L123.43 91.1113C123.43 90.6686 123.518 90.2324 123.693 89.8027C123.876 89.3665 124.133 88.9727 124.465 88.6211C124.797 88.263 125.204 87.9798 125.686 87.7715C126.174 87.5566 126.73 87.4492 127.355 87.4492C128.013 87.4492 128.592 87.5762 129.094 87.8301C129.595 88.0775 130.015 88.4225 130.354 88.8652C130.699 89.3079 130.956 89.8255 131.125 90.418C131.301 91.0039 131.389 91.6322 131.389 92.3027C131.389 92.9928 131.268 93.6374 131.027 94.2363C130.793 94.8288 130.461 95.3464 130.031 95.7891C129.602 96.2318 129.087 96.5768 128.488 96.8242C127.896 97.0716 127.235 97.1953 126.506 97.1953C125.751 97.1953 125.061 97.0618 124.436 96.7949C123.817 96.528 123.277 96.1471 122.814 95.6523C122.359 95.151 122.004 94.5521 121.75 93.8555C121.503 93.1589 121.379 92.3776 121.379 91.5117V90.3691C121.379 89.1842 121.561 88.1165 121.926 87.166C122.297 86.2155 122.811 85.4017 123.469 84.7246C124.133 84.041 124.914 83.5169 125.812 83.1523C126.711 82.7878 127.688 82.6055 128.742 82.6055Z" fill="white"/>
</svg>
